<?xml version="1.0" standalone="no"?>
<!DOCTYPE svg PUBLIC "-//W3C//DTD SVG 20010904//EN"
 "http://www.w3.org/TR/2001/REC-SVG-20010904/DTD/svg10.dtd">
<svg version="1.0" xmlns="http://www.w3.org/2000/svg"
 width="260.000000pt" height="260.000000pt" viewBox="0 0 260.000000 260.000000"
 preserveAspectRatio="xMidYMid meet">
<metadata>
Created by potrace 1.11, written by Peter Selinger 2001-2013
</metadata>
<g transform="translate(0.000000,260.000000) scale(0.100000,-0.100000)"
fill="#000000" stroke="none">
<path d="M1608 1805 c39 -17 47 -37 56 -135 14 -148 -20 -259 -78 -261 -14 0
-10 -4 14 -12 21 -8 42 -25 55 -47 18 -32 20 -52 20 -205 0 -187 -9 -230 -53
-266 l-27 -22 65 6 c181 16 310 129 310 273 0 108 -90 216 -211 252 -33 9 -59
20 -59 23 0 4 17 9 38 12 58 10 143 66 169 112 26 46 29 104 8 144 -40 78
-168 141 -284 141 l-56 -1 33 -14z"/>
<path d="M1081 1795 c52 -28 54 -41 59 -436 l5 -366 26 -34 c15 -19 51 -48 80
-64 46 -25 68 -30 147 -33 l94 -4 -25 24 c-44 44 -49 84 -56 418 -7 351 -6
346 -80 413 -22 20 -53 43 -68 51 -38 19 -143 46 -179 46 l-29 -1 26 -14z"/>
<path d="M775 1755 c-46 -16 -84 -56 -86 -88 -5 -88 45 -137 138 -137 161 0
192 187 38 229 -48 13 -41 13 -90 -4z"/>
<path d="M890 1410 c-98 -18 -190 -82 -233 -165 -30 -56 -30 -164 0 -220 47
-88 153 -153 266 -162 l62 -6 -27 22 c-44 36 -53 79 -53 266 0 196 12 238 69
254 23 7 26 9 9 10 -12 1 -27 3 -35 5 -7 2 -33 0 -58 -4z"/>
</g>
</svg>
